  0
SECTION
  2
HEADER
  9
$ACADVER
  1
AC1015
  9
$ACADMAINTVER
 70
     6
  9
$DWGCODEPAGE
  3
ANSI_1252
  9
$INSBASE
 10
0.0
 20
0.0
 30
0.0
  9
$EXTMIN
 10
0.0
 20
0.0
 30
0.0
  9
$EXTMAX
 10
279.4
 20
215.9
 30
0.0
  9
$LIMMIN
 10
0.0
 20
0.0
  9
$LIMMAX
 10
279.4
 20
215.9
  9
$ORTHOMODE
 70
     0
  9
$REGENMODE
 70
     1
  9
$FILLMODE
 70
     1
  9
$QTEXTMODE
 70
     0
  9
$MIRRTEXT
 70
     1
  9
$LTSCALE
 40
1.0
  9
$ATTMODE
 70
     1
  9
$TEXTSIZE
 40
3.5
  9
$TRACEWID
 40
1.0
  9
$TEXTSTYLE
  7
Standard
  9
$CLAYER
  8
0
  9
$CELTYPE
  6
ByLayer
  9
$CECOLOR
 62
   256
  9
$CELTSCALE
 40
1.0
  9
$DISPSILH
 70
     0
  9
$DIMSCALE
 40
1.0
  9
$DIMASZ
 40
3.302
  9
$DIMEXO
 40
0.0
  9
$DIMDLI
 40
3.75
  9
$DIMRND
 40
0.0
  9
$DIMDLE
 40
0.0
  9
$DIMEXE
 40
1.0
  9
$DIMTP
 40
0.0
  9
$DIMTM
 40
0.0
  9
$DIMTXT
 40
3.5
  9
$DIMCEN
 40
2.5
  9
$DIMTSZ
 40
0.0
  9
$DIMTOL
 70
     0
  9
$DIMLIM
 70
     0
  9
$DIMTIH
 70
     1
  9
$DIMTOH
 70
     1
  9
$DIMSE1
 70
     0
  9
$DIMSE2
 70
     0
  9
$DIMTAD
 70
     1
  9
$DIMZIN
 70
     1
  9
$DIMBLK
  1

  9
$DIMASO
 70
     1
  9
$DIMSHO
 70
     1
  9
$DIMPOST
  1

  9
$DIMAPOST
  1

  9
$DIMALT
 70
     0
  9
$DIMALTD
 70
     3
  9
$DIMALTF
 40
0.0393700787
  9
$DIMLFAC
 40
1.0
  9
$DIMTOFL
 70
     1
  9
$DIMTVP
 40
0.0
  9
$DIMTIX
 70
     0
  9
$DIMSOXD
 70
     0
  9
$DIMSAH
 70
     0
  9
$DIMBLK1
  1

  9
$DIMBLK2
  1

  9
$DIMSTYLE
  2
ISO-25
  9
$DIMCLRD
 70
     0
  9
$DIMCLRE
 70
     0
  9
$DIMCLRT
 70
     0
  9
$DIMTFAC
 40
1.0
  9
$DIMGAP
 40
1.524
  9
$DIMJUST
 70
     0
  9
$DIMSD1
 70
     0
  9
$DIMSD2
 70
     0
  9
$DIMTOLJ
 70
     0
  9
$DIMTZIN
 70
     1
  9
$DIMALTZ
 70
     0
  9
$DIMALTTZ
 70
     0
  9
$DIMUPT
 70
     0
  9
$DIMDEC
 70
     2
  9
$DIMTDEC
 70
     2
  9
$DIMALTU
 70
     2
  9
$DIMALTTD
 70
     3
  9
$DIMTXSTY
  7
Standard
  9
$DIMAUNIT
 70
     0
  9
$DIMADEC
 70
     2
  9
$DIMALTRND
 40
0.0
  9
$DIMAZIN
 70
     0
  9
$DIMDSEP
 70
    44
  9
$DIMATFIT
 70
     3
  9
$DIMFRAC
 70
     0
  9
$DIMLDRBLK
  1

  9
$DIMLUNIT
 70
     2
  9
$DIMLWD
 70
    -2
  9
$DIMLWE
 70
    -2
  9
$DIMTMOVE
 70
     0
  9
$LUNITS
 70
     2
  9
$LUPREC
 70
     2
  9
$SKETCHINC
 40
1.0
  9
$FILLETRAD
 40
0.0
  9
$AUNITS
 70
     0
  9
$AUPREC
 70
     2
  9
$MENU
  1
.
  9
$ELEVATION
 40
0.0
  9
$PELEVATION
 40
0.0
  9
$THICKNESS
 40
0.0
  9
$LIMCHECK
 70
     0
  9
$CHAMFERA
 40
0.0
  9
$CHAMFERB
 40
0.0
  9
$CHAMFERC
 40
0.0
  9
$CHAMFERD
 40
0.0
  9
$SKPOLY
 70
     0
  9
$TDCREATE
 40
2460737.537411864
  9
$TDUCREATE
 40
2460737.495745197
  9
$TDUPDATE
 40
2460737.537412477
  9
$TDUUPDATE
 40
2460737.49574581
  9
$TDINDWG
 40
0.0000000116
  9
$TDUSRTIMER
 40
0.0000000116
  9
$USRTIMER
 70
     1
  9
$ANGBASE
 50
0.0
  9
$ANGDIR
 70
     0
  9
$PDMODE
 70
     0
  9
$PDSIZE
 40
-1.0
  9
$PLINEWID
 40
0.0
  9
$SPLFRAME
 70
     0
  9
$SPLINETYPE
 70
     6
  9
$SPLINESEGS
 70
     8
  9
$HANDSEED
  5
D0
  9
$SURFTAB1
 70
     6
  9
$SURFTAB2
 70
     6
  9
$SURFTYPE
 70
     6
  9
$SURFU
 70
     6
  9
$SURFV
 70
     6
  9
$UCSBASE
  2

  9
$UCSNAME
  2

  9
$UCSORG
 10
0.0
 20
0.0
 30
0.0
  9
$UCSXDIR
 10
1.0
 20
0.0
 30
0.0
  9
$UCSYDIR
 10
0.0
 20
1.0
 30
0.0
  9
$UCSORTHOREF
  2

  9
$UCSORTHOVIEW
 70
     0
  9
$UCSORGTOP
 10
0.0
 20
0.0
 30
0.0
  9
$UCSORGBOTTOM
 10
0.0
 20
0.0
 30
0.0
  9
$UCSORGLEFT
 10
0.0
 20
0.0
 30
0.0
  9
$UCSORGRIGHT
 10
0.0
 20
0.0
 30
0.0
  9
$UCSORGFRONT
 10
0.0
 20
0.0
 30
0.0
  9
$UCSORGBACK
 10
0.0
 20
0.0
 30
0.0
  9
$PUCSBASE
  2

  9
$PUCSNAME
  2

  9
$PUCSORG
 10
0.0
 20
0.0
 30
0.0
  9
$PUCSXDIR
 10
1.0
 20
0.0
 30
0.0
  9
$PUCSYDIR
 10
0.0
 20
1.0
 30
0.0
  9
$PUCSORTHOREF
  2

  9
$PUCSORTHOVIEW
 70
     0
  9
$PUCSORGTOP
 10
0.0
 20
0.0
 30
0.0
  9
$PUCSORGBOTTOM
 10
0.0
 20
0.0
 30
0.0
  9
$PUCSORGLEFT
 10
0.0
 20
0.0
 30
0.0
  9
$PUCSORGRIGHT
 10
0.0
 20
0.0
 30
0.0
  9
$PUCSORGFRONT
 10
0.0
 20
0.0
 30
0.0
  9
$PUCSORGBACK
 10
0.0
 20
0.0
 30
0.0
  9
$USERI1
 70
     0
  9
$USERI2
 70
     0
  9
$USERI3
 70
     0
  9
$USERI4
 70
     0
  9
$USERI5
 70
     0
  9
$USERR1
 40
0.0
  9
$USERR2
 40
0.0
  9
$USERR3
 40
0.0
  9
$USERR4
 40
0.0
  9
$USERR5
 40
0.0
  9
$WORLDVIEW
 70
     1
  9
$SHADEDGE
 70
     3
  9
$SHADEDIF
 70
    70
  9
$TILEMODE
 70
     1
  9
$MAXACTVP
 70
    64
  9
$PINSBASE
 10
0.0
 20
0.0
 30
0.0
  9
$PLIMCHECK
 70
     0
  9
$PEXTMIN
 10
1.0000000000E+20
 20
1.0000000000E+20
 30
1.0000000000E+20
  9
$PEXTMAX
 10
-1.0000000000E+20
 20
-1.0000000000E+20
 30
-1.0000000000E+20
  9
$PLIMMIN
 10
0.0
 20
0.0
  9
$PLIMMAX
 10
420.0
 20
297.0
  9
$UNITMODE
 70
     0
  9
$VISRETAIN
 70
     1
  9
$PLINEGEN
 70
     0
  9
$PSLTSCALE
 70
     1
  9
$TREEDEPTH
 70
  3020
  9
$CMLSTYLE
  2
Standard
  9
$CMLJUST
 70
     0
  9
$CMLSCALE
 40
20.0
  9
$PROXYGRAPHICS
 70
     1
  9
$MEASUREMENT
 70
     1
  9
$CELWEIGHT
370
    -1
  9
$ENDCAPS
280
     0
  9
$JOINSTYLE
280
     0
  9
$LWDISPLAY
290
     1
  9
$INSUNITS
 70
     4
  9
$HYPERLINKBASE
  1

  9
$STYLESHEET
  1

  9
$XEDIT
290
     1
  9
$CEPSNTYPE
380
     0
  9
$PSTYLEMODE
290
     1
  9
$FINGERPRINTGUID
  2
{19f5129e-ad7c-4992-9ba6-e3338866ed06}
  9
$VERSIONGUID
  2
{FAEB1C32-E019-11D5-929B-00C0DF256EC4}
  9
$EXTNAMES
290
     1
  9
$PSVPSCALE
 40
0.0
  9
$OLESTARTUP
290
     0
  0
ENDSEC
  0
SECTION
  2
CLASSES
  0
CLASS
  1
ACDBDICTIONARYWDFLT
  2
AcDbDictionaryWithDefault
  3
ObjectDBX Classes
 90
        0
280
     0
281
     0
  0
CLASS
  1
VISUALSTYLE
  2
AcDbVisualStyle
  3
ObjectDBX Classes
 90
     4095
280
     0
281
     0
  0
CLASS
  1
MATERIAL
  2
AcDbMaterial
  3
ObjectDBX Classes
 90
     1153
280
     0
281
     0
  0
CLASS
  1
SCALE
  2
AcDbScale
  3
ObjectDBX Classes
 90
     1153
280
     0
281
     0
  0
CLASS
  1
TABLESTYLE
  2
AcDbTableStyle
  3
ObjectDBX Classes
 90
     4095
280
     0
281
     0
  0
CLASS
  1
MLEADERSTYLE
  2
AcDbMLeaderStyle
  3
ACDB_MLEADERSTYLE_CLASS
 90
     4095
280
     0
281
     0
  0
CLASS
  1
SUN
  2
AcDbSun
  3
SCENEOE
 90
     1153
280
     0
281
     0
  0
CLASS
  1
ACDBPLACEHOLDER
  2
AcDbPlaceHolder
  3
ObjectDBX Classes
 90
        0
280
     0
281
     0
  0
CLASS
  1
LAYOUT
  2
AcDbLayout
  3
ObjectDBX Classes
 90
        0
280
     0
281
     0
  0
ENDSEC
  0
SECTION
  2
TABLES
  0
TABLE
  2
VPORT
  5
8
330
0
100
AcDbSymbolTable
 70
     1
  0
VPORT
  5
29
330
8
100
AcDbSymbolTableRecord
100
AcDbViewportTableRecord
  2
*Active
 70
     0
 10
0.0
 20
0.0
 11
1.0
 21
1.0
 12
139.7
 22
107.95
 13
0.0
 23
0.0
 14
10.0
 24
10.0
 15
10.0
 25
10.0
 16
0.0
 26
0.0
 36
1.0
 17
0.0
 27
0.0
 37
0.0
 40
215.9
 41
1.2941176471
 42
50.0
 43
0.0
 44
0.0
 50
0.0
 51
0.0
 71
     0
 72
  2000
 73
     1
 74
     3
 75
     0
 76
     0
 77
     0
 78
     0
281
     0
 65
     1
110
0.0
120
0.0
130
0.0
111
1.0
121
0.0
131
0.0
112
0.0
122
1.0
132
0.0
 79
     0
146
0.0
  0
ENDTAB
  0
TABLE
  2
LTYPE
  5
5
330
0
100
AcDbSymbolTable
 70
     6
  0
LTYPE
  5
14
330
5
100
AcDbSymbolTableRecord
100
AcDbLinetypeTableRecord
  2
ByBlock
 70
     0
  3

 72
    65
 73
     0
 40
0.0
  0
LTYPE
  5
15
330
5
100
AcDbSymbolTableRecord
100
AcDbLinetypeTableRecord
  2
ByLayer
 70
     0
  3

 72
    65
 73
     0
 40
0.0
  0
LTYPE
  5
16
330
5
100
AcDbSymbolTableRecord
100
AcDbLinetypeTableRecord
  2
Continuous
 70
     0
  3
Solid line
 72
    65
 73
     0
 40
0.0
  0
LTYPE
  5
5E
330
5
100
AcDbSymbolTableRecord
100
AcDbLinetypeTableRecord
  2
HIDDEN
 70
     0
  3
Hidden __ __ __ __ __ __ __ __ __ __ __ __ __ __
 72
    65
 73
     2
 40
1.905
 49
1.27
 74
     0
 49
-0.635
 74
     0
  0
LTYPE
  5
5F
330
5
100
AcDbSymbolTableRecord
100
AcDbLinetypeTableRecord
  2
PHANTOM
 70
     0
  3
Phantom ______  __  __  ______  __  __  ______
 72
    65
 73
     6
 40
12.7
 49
6.35
 74
     0
 49
-1.27
 74
     0
 49
1.27
 74
     0
 49
-1.27
 74
     0
 49
1.27
 74
     0
 49
-1.27
 74
     0
  0
LTYPE
  5
60
330
5
100
AcDbSymbolTableRecord
100
AcDbLinetypeTableRecord
  2
CENTER
 70
     0
  3
Center ____ _ ____ _ ____ _ ____ _ ____ _ ____
 72
    65
 73
     4
 40
10.16
 49
6.35
 74
     0
 49
-1.27
 74
     0
 49
1.27
 74
     0
 49
-1.27
 74
     0
  0
LTYPE
  5
61
330
5
100
AcDbSymbolTableRecord
100
AcDbLinetypeTableRecord
  2
CENTERX2
 70
     0
  3
Center (2x) ________  __  ________  __  _____
 72
    65
 73
     4
 40
20.32
 49
12.7
 74
     0
 49
-2.54
 74
     0
 49
2.54
 74
     0
 49
-2.54
 74
     0
  0
LTYPE
  5
62
330
5
100
AcDbSymbolTableRecord
100
AcDbLinetypeTableRecord
  2
DOT2
 70
     0
  3
Dot (.5x) ........................................
 72
    65
 73
     2
 40
0.635
 49
0.0
 74
     0
 49
-0.635
 74
     0
  0
ENDTAB
  0
TABLE
  2
LAYER
  5
2
330
0
100
AcDbSymbolTable
 70
     1
  0
LAYER
  5
10
330
2
100
AcDbSymbolTableRecord
100
AcDbLayerTableRecord
  2
0
 70
     0
 62
     7
  6
Continuous
370
    -3
390
F
  0
ENDTAB
  0
TABLE
  2
STYLE
  5
3
330
0
100
AcDbSymbolTable
 70
     1
  0
STYLE
  5
11
330
3
100
AcDbSymbolTableRecord
100
AcDbTextStyleTableRecord
  2
Standard
 70
     0
 40
0.0
 41
1.0
 50
0.0
 71
     0
 42
3.5
  3
txt
  4

  0
ENDTAB
  0
TABLE
  2
VIEW
  5
6
330
0
100
AcDbSymbolTable
 70
     0
  0
ENDTAB
  0
TABLE
  2
UCS
  5
7
330
0
100
AcDbSymbolTable
 70
     0
  0
ENDTAB
  0
TABLE
  2
APPID
  5
9
330
0
100
AcDbSymbolTable
 70
     1
  0
APPID
  5
12
330
9
100
AcDbSymbolTableRecord
100
AcDbRegAppTableRecord
  2
ACAD
 70
     0
  0
ENDTAB
  0
TABLE
  2
DIMSTYLE
  5
A
330
0
100
AcDbSymbolTable
 70
     1
100
AcDbDimStyleTable
  0
DIMSTYLE
105
27
330
A
100
AcDbSymbolTableRecord
100
AcDbDimStyleTableRecord
  2
ISO-25
 70
     0
 41
2.5
 42
0.625
 43
3.75
 44
1.25
 73
     0
 74
     0
 77
     1
 78
     8
140
2.5
141
2.5
143
0.0393700787
147
0.625
171
     3
172
     1
178
     0
271
     2
272
     2
274
     3
278
    44
283
     0
284
     8
340
11
  0
ENDTAB
  0
TABLE
  2
BLOCK_RECORD
  5
1
330
0
100
AcDbSymbolTable
 70
     1
  0
BLOCK_RECORD
  5
1F
330
1
100
AcDbSymbolTableRecord
100
AcDbBlockTableRecord
  2
*Model_Space
340
22
  0
BLOCK_RECORD
  5
1B
330
1
100
AcDbSymbolTableRecord
100
AcDbBlockTableRecord
  2
*Paper_Space
340
1E
  0
BLOCK_RECORD
  5
23
330
1
100
AcDbSymbolTableRecord
100
AcDbBlockTableRecord
  2
*Paper_Space0
340
26
  0
ENDTAB
  0
ENDSEC
  0
SECTION
  2
BLOCKS
  0
BLOCK
  5
20
330
1F
100
AcDbEntity
  8
0
100
AcDbBlockBegin
  2
*Model_Space
 70
     0
 10
0.0
 20
0.0
 30
0.0
  3
*Model_Space
  1

  0
ENDBLK
  5
21
330
1F
100
AcDbEntity
  8
0
100
AcDbBlockEnd
  0
BLOCK
  5
1C
330
1B
100
AcDbEntity
 67
     1
  8
0
100
AcDbBlockBegin
  2
*Paper_Space
 70
     0
 10
0.0
 20
0.0
 30
0.0
  3
*Paper_Space
  1

  0
ENDBLK
  5
1D
330
1B
100
AcDbEntity
 67
     1
  8
0
100
AcDbBlockEnd
  0
BLOCK
  5
24
330
23
100
AcDbEntity
  8
0
100
AcDbBlockBegin
  2
*Paper_Space0
 70
     0
 10
0.0
 20
0.0
 30
0.0
  3
*Paper_Space0
  1

  0
ENDBLK
  5
25
330
23
100
AcDbEntity
  8
0
100
AcDbBlockEnd
  0
ENDSEC
  0
SECTION
  2
ENTITIES
  0
LINE
  5
63
330
1F
100
AcDbEntity
  8
0
  6
Continuous
 62
     7
370
    25
100
AcDbLine
 10
6.3107556512
 20
165.6982166938
 30
0.0
 11
104.3107556512
 21
165.6982166938
 31
0.0
  0
ARC
  5
64
330
1F
100
AcDbEntity
  8
0
  6
Continuous
 62
     7
370
    25
100
AcDbCircle
 10
19.3107556512
 20
189.6899244744
 30
0.0
 40
1.500000000001817
100
AcDbArc
 50
355.2882215323
 51
303.5553936402
  0
LINE
  5
65
330
1F
100
AcDbEntity
  8
0
  6
Continuous
 62
     7
370
    25
100
AcDbLine
 10
20.1398700451
 20
188.4398967459
 30
0.0
 11
17.3857034476
 21
183.3081953291
 31
0.0
  0
SPLINE
  5
66
330
1F
100
AcDbEntity
  8
0
  6
Continuous
 62
     7
370
    25
100
AcDbSpline
210
0.0
220
0.0
230
1.0
 70
     8
 71
     3
 72
    24
 73
    20
 74
     0
 42
0.00000001
 43
0.00000001
 40
0.0
 40
0.0
 40
0.0
 40
0.0
 40
0.125
 40
0.125
 40
0.2499999999999999
 40
0.2499999999999999
 40
0.3124999999999998
 40
0.3124999999999998
 40
0.3749999999999998
 40
0.3749999999999998
 40
0.4374999999999997
 40
0.4374999999999997
 40
0.4999999999999996
 40
0.4999999999999996
 40
0.6249999999999998
 40
0.6249999999999998
 40
0.7499999999999999
 40
0.7499999999999999
 40
1.0
 40
1.0
 40
1.0
 40
1.0
 10
17.38570344758332
 20
183.3081953290985
 30
0.0
 10
17.28553057034325
 20
183.121548197249
 30
0.0
 10
17.20094905599438
 20
182.9270932517651
 30
0.0
 10
17.07483128344849
 20
182.5275522602462
 30
0.0
 10
17.03236097018461
 20
182.3189583979286
 30
0.0
 10
17.0133415604025
 20
182.0026750071937
 30
0.0
 10
17.0144329175717
 20
181.897407558176
 30
0.0
 10
17.0333144558507
 20
181.6872329835752
 30
0.0
 10
17.05141220473565
 20
181.5815971878955
 30
0.0
 10
17.10476072373239
 20
181.3779676865614
 30
0.0
 10
17.13995713180864
 20
181.2792463668234
 30
0.0
 10
17.22786143818659
 20
181.0881601743142
 30
0.0
 10
17.28122305223372
 20
180.9950597894014
 30
0.0
 10
17.46170015030428
 20
180.7353781713236
 30
0.0
 10
17.61186283375042
 20
180.5837618563254
 30
0.0
 10
17.94791831622726
 20
180.3283952863987
 30
0.0
 10
18.13109065271938
 20
180.2253923227943
 30
0.0
 10
18.71483227447805
 20
179.9721574170464
 30
0.0
 10
19.12396130636189
 20
179.8851781908061
 30
0.0
 10
19.5444899691251
 20
179.845603299323
 30
0.0
  0
ELLIPSE
  5
67
330
1F
100
AcDbEntity
  8
0
  6
Continuous
 62
     7
370
    25
100
AcDbEllipse
 10
18.2326085242
 20
176.3959495461
 30
0.0
 11
3.023715784073787
 21
2.618614682831918
 31
0.0
210
0.0
220
0.0
230
0.9999999999999999
 40
0.75
 41
5.819139379757032
 42
6.905546226490809
  0
ELLIPSE
  5
68
330
1F
100
AcDbEntity
  8
0
  6
Continuous
 62
     7
370
    25
100
AcDbEllipse
 10
23.2487587765
 20
178.2533303358
 30
0.0
 11
1.209486313629494
 21
1.047445873132773
 31
0.0
210
0.0
220
0.0
230
1.0
 40
0.75
 41
2.677546726167205
 42
3.855317032534503
  0
LINE
  5
69
330
1F
100
AcDbEntity
  8
0
  6
Continuous
 62
     7
370
    25
100
AcDbLine
 10
22.8487587765
 20
176.8676896897
 30
0.0
 11
41.4394374444
 21
176.8676896897
 31
0.0
  0
ELLIPSE
  5
6A
330
1F
100
AcDbEntity
  8
0
  6
Continuous
 62
     7
370
    25
100
AcDbEllipse
 10
41.8394374444
 20
178.2533303358
 30
0.0
 11
1.209486313629498
 21
1.047445873132773
 31
0.0
210
0.0
220
0.0
230
1.0
 40
0.75
 41
3.855317032534583
 42
5.438830392503237
  0
LINE
  5
6B
330
1F
100
AcDbEntity
  8
0
  6
Continuous
 62
     7
370
    25
100
AcDbLine
 10
43.2300527232
 20
178.2709510989
 30
0.0
 11
46.4800013115
 21
190.0479442213
 31
0.0
  0
ELLIPSE
  5
6C
330
1F
100
AcDbEntity
  8
0
  6
Continuous
 62
     7
370
    25
100
AcDbEllipse
 10
45.0893860327
 20
190.0303234582
 30
0.0
 11
1.209486313629498
 21
1.047445873132773
 31
0.0
210
0.0
220
0.0
230
1.0
 40
0.75
 41
5.438830392503189
 42
6.997298301423085
  0
LINE
  5
6D
330
1F
100
AcDbEntity
  8
0
  6
Continuous
 62
     7
370
    25
100
AcDbLine
 10
45.4888475213
 20
191.4159639996
 30
0.0
 11
24.6657395378
 21
191.4078727286
 31
0.0
  0
ELLIPSE
  5
6E
330
1F
100
AcDbEntity
  8
0
  6
Continuous
 62
     7
370
    25
100
AcDbEllipse
 10
23.4272627758
 20
189.0982492882
 30
0.0
 11
3.071252021759953
 21
1.431041395769739
 31
0.0
210
0.0
220
0.0
230
1.0
 40
0.5902692928
 41
0.903057869862303
 42
2.269113721183609
  0
LINE
  5
6F
330
1F
100
AcDbEntity
  8
0
  6
Continuous
 62
     7
370
    25
100
AcDbLine
 10
85.9416467706
 20
191.4316828136
 30
0.0
 11
84.0890691665
 21
191.4309629544
 31
0.0
  0
ELLIPSE
  5
70
330
1F
100
AcDbEntity
  8
0
  6
Continuous
 62
     7
370
    25
100
AcDbEllipse
 10
83.9394191927
 20
190.1467458811
 30
0.0
 11
-1.209486313629498
 21
1.047445873132745
 31
0.0
210
0.0
220
0.0
230
1.0
 40
0.75
 41
5.184475329709512
 42
5.569460928234914
  0
LINE
  5
71
330
1F
100
AcDbEntity
  8
0
  6
Continuous
 62
     7
370
    25
100
AcDbLine
 10
83.5394191927
 20
191.5323865272
 30
0.0
 11
64.9487405248
 21
191.5323865272
 31
0.0
  0
ELLIPSE
  5
72
330
1F
100
AcDbEntity
  8
0
  6
Continuous
 62
     7
370
    25
100
AcDbEllipse
 10
65.3487405248
 20
190.1467458811
 30
0.0
 11
-1.209486313629484
 21
1.047445873132745
 31
0.0
210
0.0
220
0.0
230
1.0
 40
0.75
 41
5.56946092823491
 42
7.140257255029693
  0
LINE
  5
73
330
1F
100
AcDbEntity
  8
0
  6
Continuous
 62
     7
370
    25
100
AcDbLine
 10
63.9630998787
 20
190.1467458811
 30
0.0
 11
67.3964332121
 21
178.2533303358
 31
0.0
  0
ELLIPSE
  5
74
330
1F
100
AcDbEntity
  8
0
  6
Continuous
 62
     7
370
    25
100
AcDbEllipse
 10
68.7820738581
 20
178.2533303358
 30
0.0
 11
-1.209486313629498
 21
1.047445873132745
 31
0.0
210
0.0
220
0.0
230
1.0
 40
0.75
 41
0.8570719478501347
 42
2.427868274644995
  0
LINE
  5
75
330
1F
100
AcDbEntity
  8
0
  6
Continuous
 62
     7
370
    25
100
AcDbLine
 10
69.1820738581
 20
176.8676896897
 30
0.0
 11
87.772752526
 21
176.8676896897
 31
0.0
  0
ELLIPSE
  5
76
330
1F
100
AcDbEntity
  8
0
  6
Continuous
 62
     7
370
    25
100
AcDbEllipse
 10
87.372752526
 20
178.2533303358
 30
0.0
 11
-1.209486313629498
 21
1.047445873132745
 31
0.0
210
0.0
220
0.0
230
1.0
 40
0.75
 41
2.427868274645002
 42
3.611858298787614
  0
SPLINE
  5
77
330
1F
100
AcDbEntity
  8
0
  6
Continuous
 62
     7
370
    25
100
AcDbSpline
210
0.0
220
0.0
230
1.0
 70
     8
 71
     3
 72
    14
 73
    10
 74
     0
 42
0.00000001
 43
0.00000001
 40
0.0
 40
0.0
 40
0.0
 40
0.0
 40
0.25
 40
0.25
 40
0.5
 40
0.5
 40
0.75
 40
0.75
 40
1.0
 40
1.0
 40
1.0
 40
1.0
 10
88.8069130693339
 20
177.7306215099627
 30
0.0
 10
88.84049922872832
 20
178.0136875067948
 30
0.0
 10
88.91808171210651
 20
178.2913067633459
 30
0.0
 10
89.16400838609233
 20
178.797724699234
 30
0.0
 10
89.33610506007687
 20
179.0309447796485
 30
0.0
 10
89.74699421505943
 20
179.4112644926666
 30
0.0
 10
89.9926351293308
 20
179.5649415373623
 30
0.0
 10
90.51078017888341
 20
179.7798115308661
 30
0.0
 10
90.7898175170732
 20
179.8454381248738
 30
0.0
 10
91.07224356149072
 20
179.8728008521734
 30
0.0
  0
SPLINE
  5
78
330
1F
100
AcDbEntity
  8
0
  6
Continuous
 62
     7
370
    25
100
AcDbSpline
210
0.0
220
0.0
230
1.0
 70
     8
 71
     3
 72
    20
 73
    16
 74
     0
 42
0.00000001
 43
0.00000001
 40
0.0
 40
0.0
 40
0.0
 40
0.0
 40
0.2499999999999973
 40
0.2499999999999973
 40
0.3749999999999978
 40
0.3749999999999978
 40
0.4999999999999982
 40
0.4999999999999982
 40
0.6249999999999987
 40
0.6249999999999987
 40
0.7499999999999991
 40
0.7499999999999991
 40
0.8749999999999996
 40
0.8749999999999996
 40
1.0
 40
1.0
 40
1.0
 40
1.0
 10
91.0722435614904
 20
179.8728008521734
 30
0.0
 10
91.49192487721263
 20
179.9134614981085
 30
0.0
 10
91.90313396004505
 20
180.0027687692295
 30
0.0
 10
92.48113613905689
 20
180.2558491772597
 30
0.0
 10
92.66572404603016
 20
180.3605326591988
 30
0.0
 10
92.9983005191876
 20
180.6150796640341
 30
0.0
 10
93.149065321155
 20
180.7682976129075
 30
0.0
 10
93.38731313335195
 20
181.1133813555467
 30
0.0
 10
93.47696513987206
 20
181.3093033649653
 30
0.0
 10
93.58225686896819
 20
181.7151804985649
 30
0.0
 10
93.59955648758304
 20
181.9294078278377
 30
0.0
 10
93.57403440305238
 20
182.347401258338
 30
0.0
 10
93.5314904236582
 20
182.5569442780405
 30
0.0
 10
93.40504015349364
 20
182.956683236089
 30
0.0
 10
93.3212996326184
 20
183.1489027585963
 30
0.0
 10
93.22137497346698
 20
183.3350873980469
 30
0.0
  0
LINE
  5
79
330
1F
100
AcDbEntity
  8
0
  6
Continuous
 62
     7
370
    25
100
AcDbLine
 10
93.2213749735
 20
183.335087398
 30
0.0
 11
90.4816412574
 21
188.4398967459
 31
0.0
  0
ARC
  5
7A
330
1F
100
AcDbEntity
  8
0
  6
Continuous
 62
     7
370
    25
100
AcDbCircle
 10
91.3107556512
 20
189.6899244744
 30
0.0
 40
1.499999999999598
100
AcDbArc
 50
236.4446063585
 51
184.3551035278
  0
ELLIPSE
  5
7B
330
1F
100
AcDbEntity
  8
0
  6
Continuous
 62
     7
370
    25
100
AcDbEllipse
 10
87.1809530059
 20
189.1230221697
 30
0.0
 11
-3.070656399823619
 21
1.428973911202519
 31
0.0
210
0.0
220
0.0
230
1.0
 40
0.5905155012
 41
4.00651056033149
 42
5.380303430367543
  0
LINE
  5
7C
330
1F
100
AcDbEntity
  8
0
  6
Continuous
 62
     7
370
    25
100
AcDbLine
 10
6.3107556512
 20
213.0540610242
 30
0.0
 11
6.3107556512
 21
165.6982166938
 31
0.0
  0
LINE
  5
7D
330
1F
100
AcDbEntity
  8
0
  6
Continuous
 62
     7
370
    25
100
AcDbLine
 10
104.3107556512
 20
213.0540610242
 30
0.0
 11
6.3107556512
 21
213.0540610242
 31
0.0
  0
LINE
  5
7E
330
1F
100
AcDbEntity
  8
0
  6
Continuous
 62
     7
370
    25
100
AcDbLine
 10
104.3107556512
 20
165.6982166938
 30
0.0
 11
104.3107556512
 21
213.0540610242
 31
0.0
  0
LINE
  5
7F
330
1F
100
AcDbEntity
  8
0
  6
Continuous
 62
     7
370
    25
100
AcDbLine
 10
6.3107556512
 20
113.7445335621
 30
0.0
 11
104.3107556512
 21
113.7445335621
 31
0.0
  0
ARC
  5
80
330
1F
100
AcDbEntity
  8
0
  6
Continuous
 62
     7
370
    25
100
AcDbCircle
 10
19.3107556512
 20
138.7362413427
 30
0.0
 40
1.500000000001821
100
AcDbArc
 50
355.2882215323
 51
303.5553936402
  0
LINE
  5
81
330
1F
100
AcDbEntity
  8
0
  6
Continuous
 62
     7
370
    25
100
AcDbLine
 10
20.1398700451
 20
137.4862136143
 30
0.0
 11
17.3857034476
 21
132.3545121975
 31
0.0
  0
SPLINE
  5
82
330
1F
100
AcDbEntity
  8
0
  6
Continuous
 62
     7
370
    25
100
AcDbSpline
210
0.0
220
0.0
230
1.0
 70
     8
 71
     3
 72
    24
 73
    20
 74
     0
 42
0.00000001
 43
0.00000001
 40
0.0
 40
0.0
 40
0.0
 40
0.0
 40
0.125
 40
0.125
 40
0.2499999999999999
 40
0.2499999999999999
 40
0.3124999999999998
 40
0.3124999999999998
 40
0.3749999999999998
 40
0.3749999999999998
 40
0.4374999999999997
 40
0.4374999999999997
 40
0.4999999999999996
 40
0.4999999999999996
 40
0.6249999999999998
 40
0.6249999999999998
 40
0.7499999999999999
 40
0.7499999999999999
 40
1.0
 40
1.0
 40
1.0
 40
1.0
 10
17.38570344758328
 20
132.3545121974617
 30
0.0
 10
17.28553057034321
 20
132.1678650656122
 30
0.0
 10
17.20094905599434
 20
131.9734101201282
 30
0.0
 10
17.07483128344844
 20
131.5738691286093
 30
0.0
 10
17.03236097018457
 20
131.3652752662917
 30
0.0
 10
17.01334156040246
 20
131.0489918755569
 30
0.0
 10
17.01443291757165
 20
130.9437244265392
 30
0.0
 10
17.03331445585066
 20
130.7335498519384
 30
0.0
 10
17.05141220473561
 20
130.6279140562586
 30
0.0
 10
17.10476072373235
 20
130.4242845549246
 30
0.0
 10
17.1399571318086
 20
130.3255632351866
 30
0.0
 10
17.22786143818655
 20
130.1344770426774
 30
0.0
 10
17.28122305223367
 20
130.0413766577646
 30
0.0
 10
17.46170015030424
 20
129.7816950396868
 30
0.0
 10
17.61186283375038
 20
129.6300787246886
 30
0.0
 10
17.94791831622722
 20
129.3747121547619
 30
0.0
 10
18.13109065271934
 20
129.2717091911575
 30
0.0
 10
18.71483227447801
 20
129.0184742854096
 30
0.0
 10
19.12396130636185
 20
128.9314950591693
 30
0.0
 10
19.54448996912506
 20
128.8919201676862
 30
0.0
  0
ELLIPSE
  5
83
330
1F
100
AcDbEntity
  8
0
  6
Continuous
 62
     7
370
    25
100
AcDbEllipse
 10
18.2326085242
 20
125.4422664144
 30
0.0
 11
3.023715784073791
 21
2.618614682831933
 31
0.0
210
0.0
220
0.0
230
1.0
 40
0.75
 41
5.819139379757032
 42
6.905546226490806
  0
ELLIPSE
  5
84
330
1F
100
AcDbEntity
  8
0
  6
Continuous
 62
     7
370
    25
100
AcDbEllipse
 10
23.2487587765
 20
127.2996472042
 30
0.0
 11
1.209486313629494
 21
1.047445873132773
 31
0.0
210
0.0
220
0.0
230
1.0
 40
0.75
 41
2.677546726167197
 42
3.855317032534511
  0
LINE
  5
85
330
1F
100
AcDbEntity
  8
0
  6
Continuous
 62
     7
370
    25
100
AcDbLine
 10
22.8487587765
 20
125.9140065581
 30
0.0
 11
41.4394374444
 21
125.9140065581
 31
0.0
  0
ELLIPSE
  5
86
330
1F
100
AcDbEntity
  8
0
  6
Continuous
 62
     7
370
    25
100
AcDbEllipse
 10
41.8394374444
 20
127.2996472042
 30
0.0
 11
1.209486313629498
 21
1.047445873132773
 31
0.0
210
0.0
220
0.0
230
1.0
 40
0.75
 41
3.855317032534583
 42
5.438830392503227
  0
LINE
  5
87
330
1F
100
AcDbEntity
  8
0
  6
Continuous
 62
     7
370
    25
100
AcDbLine
 10
43.2300527232
 20
127.3172679673
 30
0.0
 11
46.4800013115
 21
139.0942610896
 31
0.0
  0
ELLIPSE
  5
88
330
1F
100
AcDbEntity
  8
0
  6
Continuous
 62
     7
370
    25
100
AcDbEllipse
 10
45.0893860327
 20
139.0766403265
 30
0.0
 11
1.209486313629491
 21
1.047445873132802
 31
0.0
210
0.0
220
0.0
230
1.0
 40
0.75
 41
5.438830392503199
 42
6.99729830142307
  0
LINE
  5
89
330
1F
100
AcDbEntity
  8
0
  6
Continuous
 62
     7
370
    25
100
AcDbLine
 10
45.4888475213
 20
140.4622808679
 30
0.0
 11
24.6657395378
 21
140.4541895969
 31
0.0
  0
ELLIPSE
  5
8A
330
1F
100
AcDbEntity
  8
0
  6
Continuous
 62
     7
370
    25
100
AcDbEllipse
 10
23.4272627758
 20
138.1445661566
 30
0.0
 11
3.07125202175995
 21
1.431041395769739
 31
0.0
210
0.0
220
0.0
230
1.0
 40
0.5902692928
 41
0.9030578698623021
 42
2.269113721183609
  0
LINE
  5
8B
330
1F
100
AcDbEntity
  8
0
  6
Continuous
 62
     7
370
    25
100
AcDbLine
 10
85.9416467706
 20
140.477999682
 30
0.0
 11
84.0890691665
 21
140.4772798227
 31
0.0
  0
ELLIPSE
  5
8C
330
1F
100
AcDbEntity
  8
0
  6
Continuous
 62
     7
370
    25
100
AcDbEllipse
 10
83.9394191927
 20
139.1930627495
 30
0.0
 11
-1.209486313629498
 21
1.047445873132773
 31
0.0
210
0.0
220
0.0
230
1.0
 40
0.75
 41
5.184475329709511
 42
5.569460928234908
  0
LINE
  5
8D
330
1F
100
AcDbEntity
  8
0
  6
Continuous
 62
     7
370
    25
100
AcDbLine
 10
83.5394191927
 20
140.5787033955
 30
0.0
 11
64.9487405248
 21
140.5787033955
 31
0.0
  0
ELLIPSE
  5
8E
330
1F
100
AcDbEntity
  8
0
  6
Continuous
 62
     7
370
    25
100
AcDbEllipse
 10
65.3487405248
 20
139.1930627495
 30
0.0
 11
-1.209486313629483
 21
1.047445873132773
 31
0.0
210
0.0
220
0.0
230
1.0
 40
0.75
 41
5.569460928234903
 42
7.140257255029722
  0
LINE
  5
8F
330
1F
100
AcDbEntity
  8
0
  6
Continuous
 62
     7
370
    25
100
AcDbLine
 10
63.9630998787
 20
139.1930627495
 30
0.0
 11
67.3964332121
 21
127.2996472042
 31
0.0
  0
ELLIPSE
  5
90
330
1F
100
AcDbEntity
  8
0
  6
Continuous
 62
     7
370
    25
100
AcDbEllipse
 10
68.7820738581
 20
127.2996472042
 30
0.0
 11
-1.209486313629498
 21
1.047445873132745
 31
0.0
210
0.0
220
0.0
230
1.0
 40
0.75
 41
0.8570719478501303
 42
2.42786827464501
  0
LINE
  5
91
330
1F
100
AcDbEntity
  8
0
  6
Continuous
 62
     7
370
    25
100
AcDbLine
 10
69.1820738581
 20
125.9140065581
 30
0.0
 11
87.772752526
 21
125.9140065581
 31
0.0
  0
ELLIPSE
  5
92
330
1F
100
AcDbEntity
  8
0
  6
Continuous
 62
     7
370
    25
100
AcDbEllipse
 10
87.372752526
 20
127.2996472042
 30
0.0
 11
-1.209486313629484
 21
1.047445873132745
 31
0.0
210
0.0
220
0.0
230
1.0
 40
0.75
 41
2.42786827464502
 42
3.611858298787618
  0
SPLINE
  5
93
330
1F
100
AcDbEntity
  8
0
  6
Continuous
 62
     7
370
    25
100
AcDbSpline
210
0.0
220
0.0
230
1.0
 70
     8
 71
     3
 72
    14
 73
    10
 74
     0
 42
0.00000001
 43
0.00000001
 40
0.0
 40
0.0
 40
0.0
 40
0.0
 40
0.25
 40
0.25
 40
0.5
 40
0.5
 40
0.75
 40
0.75
 40
1.0
 40
1.0
 40
1.0
 40
1.0
 10
88.80691306933386
 20
126.7769383783259
 30
0.0
 10
88.84049922872828
 20
127.060004375158
 30
0.0
 10
88.91808171210647
 20
127.3376236317091
 30
0.0
 10
89.16400838609229
 20
127.8440415675972
 30
0.0
 10
89.33610506007683
 20
128.0772616480117
 30
0.0
 10
89.74699421505939
 20
128.4575813610298
 30
0.0
 10
89.99263512933075
 20
128.6112584057255
 30
0.0
 10
90.51078017888337
 20
128.8261283992293
 30
0.0
 10
90.78981751707316
 20
128.891754993237
 30
0.0
 10
91.07224356149068
 20
128.9191177205366
 30
0.0
  0
SPLINE
  5
94
330
1F
100
AcDbEntity
  8
0
  6
Continuous
 62
     7
370
    25
100
AcDbSpline
210
0.0
220
0.0
230
1.0
 70
     8
 71
     3
 72
    20
 73
    16
 74
     0
 42
0.00000001
 43
0.00000001
 40
0.0
 40
0.0
 40
0.0
 40
0.0
 40
0.2499999999999973
 40
0.2499999999999973
 40
0.3749999999999978
 40
0.3749999999999978
 40
0.4999999999999982
 40
0.4999999999999982
 40
0.6249999999999987
 40
0.6249999999999987
 40
0.7499999999999991
 40
0.7499999999999991
 40
0.8749999999999996
 40
0.8749999999999996
 40
1.0
 40
1.0
 40
1.0
 40
1.0
 10
91.07224356149035
 20
128.9191177205366
 30
0.0
 10
91.49192487721258
 20
128.9597783664717
 30
0.0
 10
91.90313396004501
 20
129.0490856375927
 30
0.0
 10
92.48113613905684
 20
129.3021660456229
 30
0.0
 10
92.66572404603014
 20
129.406849527562
 30
0.0
 10
92.99830051918757
 20
129.6613965323972
 30
0.0
 10
93.14906532115496
 20
129.8146144812707
 30
0.0
 10
93.38731313335191
 20
130.1596982239099
 30
0.0
 10
93.47696513987202
 20
130.3556202333285
 30
0.0
 10
93.58225686896814
 20
130.7614973669281
 30
0.0
 10
93.599556487583
 20
130.9757246962009
 30
0.0
 10
93.57403440305234
 20
131.3937181267012
 30
0.0
 10
93.53149042365816
 20
131.6032611464037
 30
0.0
 10
93.4050401534936
 20
132.0030001044522
 30
0.0
 10
93.32129963261838
 20
132.1952196269594
 30
0.0
 10
93.22137497346694
 20
132.3814042664101
 30
0.0
  0
LINE
  5
95
330
1F
100
AcDbEntity
  8
0
  6
Continuous
 62
     7
370
    25
100
AcDbLine
 10
93.2213749735
 20
132.3814042664
 30
0.0
 11
90.4816412574
 21
137.4862136143
 31
0.0
  0
ARC
  5
96
330
1F
100
AcDbEntity
  8
0
  6
Continuous
 62
     7
370
    25
100
AcDbCircle
 10
91.3107556512
 20
138.7362413427
 30
0.0
 40
1.499999999999612
100
AcDbArc
 50
236.4446063585
 51
184.3551035278
  0
ELLIPSE
  5
97
330
1F
100
AcDbEntity
  8
0
  6
Continuous
 62
     7
370
    25
100
AcDbEllipse
 10
87.1809530059
 20
138.1693390381
 30
0.0
 11
-3.070656399823619
 21
1.428973911202547
 31
0.0
210
0.0
220
0.0
230
1.0
 40
0.5905155012
 41
4.006510560331519
 42
5.380303430367532
  0
LINE
  5
98
330
1F
100
AcDbEntity
  8
0
  6
Continuous
 62
     7
370
    25
100
AcDbLine
 10
6.3107556512
 20
162.1003778926
 30
0.0
 11
6.3107556512
 21
113.7445335621
 31
0.0
  0
LINE
  5
99
330
1F
100
AcDbEntity
  8
0
  6
Continuous
 62
     7
370
    25
100
AcDbLine
 10
104.3107556512
 20
162.1003778926
 30
0.0
 11
6.3107556512
 21
162.1003778926
 31
0.0
  0
LINE
  5
9A
330
1F
100
AcDbEntity
  8
0
  6
Continuous
 62
     7
370
    25
100
AcDbLine
 10
104.3107556512
 20
113.7445335621
 30
0.0
 11
104.3107556512
 21
162.1003778926
 31
0.0
  0
LINE
  5
9B
330
1F
100
AcDbEntity
  8
0
  6
Continuous
 62
     7
370
    25
100
AcDbLine
 10
6.3107556512
 20
53.1356594793
 30
0.0
 11
104.3107556512
 21
53.1356594793
 31
0.0
  0
ARC
  5
9C
330
1F
100
AcDbEntity
  8
0
  6
Continuous
 62
     7
370
    25
100
AcDbCircle
 10
19.3107556512
 20
88.1273672598
 30
0.0
 40
1.500000000001821
100
AcDbArc
 50
355.2882215323
 51
303.5553936402
  0
LINE
  5
9D
330
1F
100
AcDbEntity
  8
0
  6
Continuous
 62
     7
370
    25
100
AcDbLine
 10
20.1398700451
 20
86.8773395314
 30
0.0
 11
17.3857034476
 21
81.7456381146
 31
0.0
  0
SPLINE
  5
9E
330
1F
100
AcDbEntity
  8
0
  6
Continuous
 62
     7
370
    25
100
AcDbSpline
210
0.0
220
0.0
230
1.0
 70
     8
 71
     3
 72
    24
 73
    20
 74
     0
 42
0.00000001
 43
0.00000001
 40
0.0
 40
0.0
 40
0.0
 40
0.0
 40
0.125
 40
0.125
 40
0.2499999999999999
 40
0.2499999999999999
 40
0.3124999999999998
 40
0.3124999999999998
 40
0.3749999999999998
 40
0.3749999999999998
 40
0.4374999999999997
 40
0.4374999999999997
 40
0.4999999999999996
 40
0.4999999999999996
 40
0.6249999999999998
 40
0.6249999999999998
 40
0.7499999999999999
 40
0.7499999999999999
 40
1.0
 40
1.0
 40
1.0
 40
1.0
 10
17.38570344758328
 20
81.74563811456692
 30
0.0
 10
17.28553057034321
 20
81.5589909827174
 30
0.0
 10
17.20094905599434
 20
81.36453603723348
 30
0.0
 10
17.07483128344844
 20
80.96499504571459
 30
0.0
 10
17.03236097018457
 20
80.75640118339697
 30
0.0
 10
17.01334156040246
 20
80.44011779266216
 30
0.0
 10
17.01443291757165
 20
80.33485034364446
 30
0.0
 10
17.03331445585066
 20
80.12467576904363
 30
0.0
 10
17.05141220473561
 20
80.01903997336387
 30
0.0
 10
17.10476072373235
 20
79.81541047202978
 30
0.0
 10
17.1399571318086
 20
79.71668915229182
 30
0.0
 10
17.22786143818655
 20
79.52560295978259
 30
0.0
 10
17.28122305223367
 20
79.43250257486986
 30
0.0
 10
17.46170015030424
 20
79.17282095679198
 30
0.0
 10
17.61186283375038
 20
79.0212046417938
 30
0.0
 10
17.94791831622722
 20
78.76583807186715
 30
0.0
 10
18.13109065271934
 20
78.66283510826271
 30
0.0
 10
18.71483227447801
 20
78.40960020251481
 30
0.0
 10
19.12396130636185
 20
78.32262097627452
 30
0.0
 10
19.54448996912506
 20
78.28304608479145
 30
0.0
  0
ELLIPSE
  5
9F
330
1F
100
AcDbEntity
  8
0
  6
Continuous
 62
     7
370
    25
100
AcDbEllipse
 10
18.2326085242
 20
74.8333923315
 30
0.0
 11
3.023715784073791
 21
2.618614682831933
 31
0.0
210
0.0
220
0.0
230
1.0
 40
0.75
 41
5.819139379757028
 42
6.905546226490805
  0
ELLIPSE
  5
A0
330
1F
100
AcDbEntity
  8
0
  6
Continuous
 62
     7
370
    25
100
AcDbEllipse
 10
23.2487587765
 20
76.6907731213
 30
0.0
 11
1.209486313629494
 21
1.047445873132773
 31
0.0
210
0.0
220
0.0
230
1.0
 40
0.75
 41
2.677546726167209
 42
3.855317032534511
  0
LINE
  5
A1
330
1F
100
AcDbEntity
  8
0
  6
Continuous
 62
     7
370
    25
100
AcDbLine
 10
22.8487587765
 20
75.3051324752
 30
0.0
 11
41.4394374444
 21
75.3051324752
 31
0.0
  0
ELLIPSE
  5
A2
330
1F
100
AcDbEntity
  8
0
  6
Continuous
 62
     7
370
    25
100
AcDbEllipse
 10
41.8394374444
 20
76.6907731213
 30
0.0
 11
1.209486313629498
 21
1.047445873132773
 31
0.0
210
0.0
220
0.0
230
1.0
 40
0.75
 41
3.855317032534583
 42
5.438830392503227
  0
LINE
  5
A3
330
1F
100
AcDbEntity
  8
0
  6
Continuous
 62
     7
370
    25
100
AcDbLine
 10
43.2300527232
 20
76.7083938844
 30
0.0
 11
46.4800013115
 21
88.4853870067
 31
0.0
  0
ELLIPSE
  5
A4
330
1F
100
AcDbEntity
  8
0
  6
Continuous
 62
     7
370
    25
100
AcDbEllipse
 10
45.0893860327
 20
88.4677662436
 30
0.0
 11
1.20948631362949
 21
1.047445873132787
 31
0.0
210
0.0
220
0.0
230
1.0
 40
0.75
 41
5.438830392503195
 42
6.99729830142308
  0
LINE
  5
A5
330
1F
100
AcDbEntity
  8
0
  6
Continuous
 62
     7
370
    25
100
AcDbLine
 10
45.4888475213
 20
89.8534067851
 30
0.0
 11
24.6657395378
 21
89.845315514
 31
0.0
  0
ELLIPSE
  5
A6
330
1F
100
AcDbEntity
  8
0
  6
Continuous
 62
     7
370
    25
100
AcDbEllipse
 10
23.4272627758
 20
87.5356920737
 30
0.0
 11
3.07125202175995
 21
1.431041395769739
 31
0.0
210
0.0
220
0.0
230
1.0
 40
0.5902692928
 41
0.9030578698622996
 42
2.269113721183609
  0
LINE
  5
A7
330
1F
100
AcDbEntity
  8
0
  6
Continuous
 62
     7
370
    25
100
AcDbLine
 10
85.9416467706
 20
89.8691255991
 30
0.0
 11
84.0890691665
 21
89.8684057398
 31
0.0
  0
ELLIPSE
  5
A8
330
1F
100
AcDbEntity
  8
0
  6
Continuous
 62
     7
370
    25
100
AcDbEllipse
 10
83.9394191927
 20
88.5841886666
 30
0.0
 11
-1.209486313629498
 21
1.047445873132758
 31
0.0
210
0.0
220
0.0
230
0.9999999999999999
 40
0.75
 41
5.184475329709511
 42
5.569460928234908
  0
LINE
  5
A9
330
1F
100
AcDbEntity
  8
0
  6
Continuous
 62
     7
370
    25
100
AcDbLine
 10
83.5394191927
 20
89.9698293126
 30
0.0
 11
64.9487405248
 21
89.9698293126
 31
0.0
  0
ELLIPSE
  5
AA
330
1F
100
AcDbEntity
  8
0
  6
Continuous
 62
     7
370
    25
100
AcDbEllipse
 10
65.3487405248
 20
88.5841886666
 30
0.0
 11
-1.209486313629484
 21
1.047445873132759
 31
0.0
210
0.0
220
0.0
230
1.0
 40
0.75
 41
5.569460928234903
 42
7.140257255029708
  0
LINE
  5
AB
330
1F
100
AcDbEntity
  8
0
  6
Continuous
 62
     7
370
    25
100
AcDbLine
 10
63.9630998787
 20
88.5841886666
 30
0.0
 11
67.3964332121
 21
76.6907731213
 31
0.0
  0
ELLIPSE
  5
AC
330
1F
100
AcDbEntity
  8
0
  6
Continuous
 62
     7
370
    25
100
AcDbEllipse
 10
68.7820738581
 20
76.6907731213
 30
0.0
 11
-1.209486313629498
 21
1.047445873132745
 31
0.0
210
0.0
220
0.0
230
1.0
 40
0.75
 41
0.8570719478501259
 42
2.427868274645014
  0
LINE
  5
AD
330
1F
100
AcDbEntity
  8
0
  6
Continuous
 62
     7
370
    25
100
AcDbLine
 10
69.1820738581
 20
75.3051324752
 30
0.0
 11
87.772752526
 21
75.3051324752
 31
0.0
  0
ELLIPSE
  5
AE
330
1F
100
AcDbEntity
  8
0
  6
Continuous
 62
     7
370
    25
100
AcDbEllipse
 10
87.372752526
 20
76.6907731213
 30
0.0
 11
-1.209486313629484
 21
1.047445873132745
 31
0.0
210
0.0
220
0.0
230
1.0
 40
0.75
 41
2.427868274645024
 42
3.611858298787603
  0
SPLINE
  5
AF
330
1F
100
AcDbEntity
  8
0
  6
Continuous
 62
     7
370
    25
100
AcDbSpline
210
0.0
220
0.0
230
1.0
 70
     8
 71
     3
 72
    14
 73
    10
 74
     0
 42
0.00000001
 43
0.00000001
 40
0.0
 40
0.0
 40
0.0
 40
0.0
 40
0.25
 40
0.25
 40
0.5
 40
0.5
 40
0.75
 40
0.75
 40
1.0
 40
1.0
 40
1.0
 40
1.0
 10
88.80691306933386
 20
76.16806429543108
 30
0.0
 10
88.84049922872828
 20
76.45113029226322
 30
0.0
 10
88.91808171210647
 20
76.72874954881433
 30
0.0
 10
89.16400838609229
 20
77.23516748470247
 30
0.0
 10
89.33610506007683
 20
77.4683875651169
 30
0.0
 10
89.74699421505939
 20
77.84870727813498
 30
0.0
 10
89.99263512933075
 20
78.00238432283074
 30
0.0
 10
90.51078017888337
 20
78.21725431633453
 30
0.0
 10
90.78981751707316
 20
78.28288091034224
 30
0.0
 10
91.07224356149068
 20
78.31024363764186
 30
0.0
  0
SPLINE
  5
B0
330
1F
100
AcDbEntity
  8
0
  6
Continuous
 62
     7
370
    25
100
AcDbSpline
210
0.0
220
0.0
230
1.0
 70
     8
 71
     3
 72
    20
 73
    16
 74
     0
 42
0.00000001
 43
0.00000001
 40
0.0
 40
0.0
 40
0.0
 40
0.0
 40
0.2499999999999973
 40
0.2499999999999973
 40
0.3749999999999978
 40
0.3749999999999978
 40
0.4999999999999982
 40
0.4999999999999982
 40
0.6249999999999987
 40
0.6249999999999987
 40
0.7499999999999991
 40
0.7499999999999991
 40
0.8749999999999996
 40
0.8749999999999996
 40
1.0
 40
1.0
 40
1.0
 40
1.0
 10
91.07224356149035
 20
78.31024363764183
 30
0.0
 10
91.49192487721258
 20
78.35090428357694
 30
0.0
 10
91.90313396004501
 20
78.44021155469794
 30
0.0
 10
92.48113613905684
 20
78.6932919627281
 30
0.0
 10
92.66572404603014
 20
78.79797544466724
 30
0.0
 10
92.99830051918757
 20
79.05252244950248
 30
0.0
 10
93.14906532115496
 20
79.20574039837594
 30
0.0
 10
93.38731313335191
 20
79.55082414101517
 30
0.0
 10
93.47696513987202
 20
79.7467461504337
 30
0.0
 10
93.58225686896814
 20
80.15262328403335
 30
0.0
 10
93.599556487583
 20
80.36685061330608
 30
0.0
 10
93.57403440305234
 20
80.78484404380646
 30
0.0
 10
93.53149042365816
 20
80.99438706350895
 30
0.0
 10
93.4050401534936
 20
81.39412602155741
 30
0.0
 10
93.32129963261838
 20
81.58634554406466
 30
0.0
 10
93.22137497346694
 20
81.77253018351533
 30
0.0
  0
LINE
  5
B1
330
1F
100
AcDbEntity
  8
0
  6
Continuous
 62
     7
370
    25
100
AcDbLine
 10
93.2213749735
 20
81.7725301835
 30
0.0
 11
90.4816412574
 21
86.8773395314
 31
0.0
  0
ARC
  5
B2
330
1F
100
AcDbEntity
  8
0
  6
Continuous
 62
     7
370
    25
100
AcDbCircle
 10
91.3107556512
 20
88.1273672598
 30
0.0
 40
1.499999999999612
100
AcDbArc
 50
236.4446063585
 51
184.3551035278
  0
ELLIPSE
  5
B3
330
1F
100
AcDbEntity
  8
0
  6
Continuous
 62
     7
370
    25
100
AcDbEllipse
 10
87.1809530059
 20
87.5604649552
 30
0.0
 11
-3.070656399823619
 21
1.428973911202533
 31
0.0
210
0.0
220
0.0
230
1.0
 40
0.5905155012
 41
4.006510560331504
 42
5.380303430367539
  0
LINE
  5
B4
330
1F
100
AcDbEntity
  8
0
  6
Continuous
 62
     7
370
    25
100
AcDbLine
 10
6.3107556512
 20
111.4915038097
 30
0.0
 11
6.3107556512
 21
53.1356594793
 31
0.0
  0
LINE
  5
B5
330
1F
100
AcDbEntity
  8
0
  6
Continuous
 62
     7
370
    25
100
AcDbLine
 10
104.3107556512
 20
111.4915038097
 30
0.0
 11
6.3107556512
 21
111.4915038097
 31
0.0
  0
LINE
  5
B6
330
1F
100
AcDbEntity
  8
0
  6
Continuous
 62
     7
370
    25
100
AcDbLine
 10
104.3107556512
 20
53.1356594793
 30
0.0
 11
104.3107556512
 21
111.4915038097
 31
0.0
  0
CIRCLE
  5
B7
330
1F
100
AcDbEntity
  8
0
  6
Continuous
 62
     7
370
    25
100
AcDbCircle
 10
9.5603523568
 20
48.4433295731
 30
0.0
 40
1.249999999999998
  0
CIRCLE
  5
B8
330
1F
100
AcDbEntity
  8
0
  6
Continuous
 62
     7
370
    25
100
AcDbCircle
 10
23.0603523568
 20
22.627273027
 30
0.0
 40
1.250000000000004
  0
LINE
  5
B9
330
1F
100
AcDbEntity
  8
0
  6
Continuous
 62
     7
370
    25
100
AcDbLine
 10
26.3103523568
 20
21.2516404036
 30
0.0
 11
26.3103523568
 21
49.8189621965
 31
0.0
  0
ARC
  5
BA
330
1F
100
AcDbEntity
  8
0
  6
Continuous
 62
     7
370
    25
100
AcDbCircle
 10
25.3103523568
 20
21.2516404036
 30
0.0
 40
1.000000000000004
100
AcDbArc
 50
270.0
 51
0.0
  0
LINE
  5
BB
330
1F
100
AcDbEntity
  8
0
  6
Continuous
 62
     7
370
    25
100
AcDbLine
 10
7.3103523568
 20
20.2516404036
 30
0.0
 11
25.3103523568
 21
20.2516404036
 31
0.0
  0
ARC
  5
BC
330
1F
100
AcDbEntity
  8
0
  6
Continuous
 62
     7
370
    25
100
AcDbCircle
 10
7.3103523568
 20
21.2516404036
 30
0.0
 40
1.000000000000004
100
AcDbArc
 50
180.0
 51
270.0
  0
LINE
  5
BD
330
1F
100
AcDbEntity
  8
0
  6
Continuous
 62
     7
370
    25
100
AcDbLine
 10
6.3103523568
 20
49.8189621965
 30
0.0
 11
6.3103523568
 21
21.2516404036
 31
0.0
  0
ARC
  5
BE
330
1F
100
AcDbEntity
  8
0
  6
Continuous
 62
     7
370
    25
100
AcDbCircle
 10
7.3103523568
 20
49.8189621965
 30
0.0
 40
1.000000000000001
100
AcDbArc
 50
90.0
 51
180.0
  0
LINE
  5
BF
330
1F
100
AcDbEntity
  8
0
  6
Continuous
 62
     7
370
    25
100
AcDbLine
 10
25.3103523568
 20
50.8189621965
 30
0.0
 11
7.3103523568
 21
50.8189621965
 31
0.0
  0
ARC
  5
C0
330
1F
100
AcDbEntity
  8
0
  6
Continuous
 62
     7
370
    25
100
AcDbCircle
 10
25.3103523568
 20
49.8189621965
 30
0.0
 40
1.0
100
AcDbArc
 50
0.0
 51
90.0
  0
CIRCLE
  5
C1
330
1F
100
AcDbEntity
  8
0
  6
Continuous
 62
     7
370
    25
100
AcDbCircle
 10
9.5603523568
 20
22.627273027
 30
0.0
 40
1.249999999999998
  0
CIRCLE
  5
C2
330
1F
100
AcDbEntity
  8
0
  6
Continuous
 62
     7
370
    25
100
AcDbCircle
 10
23.0603523568
 20
48.4433295731
 30
0.0
 40
1.250000000000004
  0
CIRCLE
  5
C3
330
1F
100
AcDbEntity
  8
0
  6
Continuous
 62
     7
370
    25
100
AcDbCircle
 10
31.9948337465
 20
48.4433295731
 30
0.0
 40
1.249999999999996
  0
CIRCLE
  5
C4
330
1F
100
AcDbEntity
  8
0
  6
Continuous
 62
     7
370
    25
100
AcDbCircle
 10
45.4948337465
 20
22.627273027
 30
0.0
 40
1.25
  0
LINE
  5
C5
330
1F
100
AcDbEntity
  8
0
  6
Continuous
 62
     7
370
    25
100
AcDbLine
 10
48.7448337465
 20
21.2516404036
 30
0.0
 11
48.7448337465
 21
49.8189621965
 31
0.0
  0
ARC
  5
C6
330
1F
100
AcDbEntity
  8
0
  6
Continuous
 62
     7
370
    25
100
AcDbCircle
 10
47.7448337465
 20
21.2516404036
 30
0.0
 40
1.000000000000007
100
AcDbArc
 50
270.0
 51
0.0
  0
LINE
  5
C7
330
1F
100
AcDbEntity
  8
0
  6
Continuous
 62
     7
370
    25
100
AcDbLine
 10
29.7448337465
 20
20.2516404036
 30
0.0
 11
47.7448337465
 21
20.2516404036
 31
0.0
  0
ARC
  5
C8
330
1F
100
AcDbEntity
  8
0
  6
Continuous
 62
     7
370
    25
100
AcDbCircle
 10
29.7448337465
 20
21.2516404036
 30
0.0
 40
1.000000000000004
100
AcDbArc
 50
180.0
 51
270.0
  0
LINE
  5
C9
330
1F
100
AcDbEntity
  8
0
  6
Continuous
 62
     7
370
    25
100
AcDbLine
 10
28.7448337465
 20
49.8189621965
 30
0.0
 11
28.7448337465
 21
21.2516404036
 31
0.0
  0
ARC
  5
CA
330
1F
100
AcDbEntity
  8
0
  6
Continuous
 62
     7
370
    25
100
AcDbCircle
 10
29.7448337465
 20
49.8189621965
 30
0.0
 40
1.0
100
AcDbArc
 50
90.0
 51
180.0
  0
LINE
  5
CB
330
1F
100
AcDbEntity
  8
0
  6
Continuous
 62
     7
370
    25
100
AcDbLine
 10
47.7448337465
 20
50.8189621965
 30
0.0
 11
29.7448337465
 21
50.8189621965
 31
0.0
  0
ARC
  5
CC
330
1F
100
AcDbEntity
  8
0
  6
Continuous
 62
     7
370
    25
100
AcDbCircle
 10
47.7448337465
 20
49.8189621965
 30
0.0
 40
1.000000000000007
100
AcDbArc
 50
0.0
 51
90.0
  0
CIRCLE
  5
CD
330
1F
100
AcDbEntity
  8
0
  6
Continuous
 62
     7
370
    25
100
AcDbCircle
 10
31.9948337465
 20
22.627273027
 30
0.0
 40
1.249999999999996
  0
CIRCLE
  5
CE
330
1F
100
AcDbEntity
  8
0
  6
Continuous
 62
     7
370
    25
100
AcDbCircle
 10
45.4948337465
 20
48.4433295731
 30
0.0
 40
1.25
  0
ENDSEC
  0
SECTION
  2
OBJECTS
  0
DICTIONARY
  5
C
330
0
100
AcDbDictionary
281
     1
  3
ACAD_GROUP
350
D
  3
ACAD_LAYOUT
350
1A
  3
ACAD_MLINESTYLE
350
17
  3
ACAD_PLOTSETTINGS
350
19
  3
ACAD_PLOTSTYLENAME
350
E
  3
ACAD_SCALELIST
350
47
  3
DWGPROPS
350
CF
  0
DICTIONARY
  5
D
102
{ACAD_REACTORS
330
C
102
}
330
C
100
AcDbDictionary
281
     1
  0
DICTIONARY
  5
1A
102
{ACAD_REACTORS
330
C
102
}
330
C
100
AcDbDictionary
281
     1
  3
Layout1
350
1E
  3
Layout2
350
26
  3
Model
350
22
  0
DICTIONARY
  5
17
102
{ACAD_REACTORS
330
C
102
}
330
C
100
AcDbDictionary
281
     1
  3
Standard
350
18
  0
DICTIONARY
  5
19
102
{ACAD_REACTORS
330
C
102
}
330
C
100
AcDbDictionary
281
     1
  0
ACDBDICTIONARYWDFLT
  5
E
102
{ACAD_REACTORS
330
C
102
}
330
C
100
AcDbDictionary
281
     1
  3
Normal
350
F
100
AcDbDictionaryWithDefault
340
F
  0
DICTIONARY
  5
47
102
{ACAD_REACTORS
330
C
102
}
330
C
100
AcDbDictionary
281
     1
  3
A0
350
48
  3
A1
350
49
  3
A2
350
4A
  3
A3
350
4B
  3
A4
350
4C
  3
A5
350
4D
  3
A6
350
4E
  3
A7
350
4F
  3
A8
350
50
  3
A9
350
51
  3
B0
350
52
  3
B1
350
53
  3
B2
350
54
  3
B3
350
55
  3
B4
350
56
  3
B5
350
57
  3
B6
350
58
  0
XRECORD
  5
CF
102
{ACAD_REACTORS
330
C
102
}
330
C
100
AcDbXrecord
280
     1
  1
DWGPROPS COOKIE
  2

  3

  4

  6

  7

  8
user
  9

300
=
301
=
302
=
303
=
304
=
305
=
306
=
307
=
308
=
309
=
 40
0.0
 41
2460737.495745197
 42
2460737.49574581
  1

 90
        0
  0
LAYOUT
  5
1E
102
{ACAD_REACTORS
330
1A
102
}
330
1A
100
AcDbPlotSettings
  1

  2
none_device
  4

  6

 40
0.0
 41
0.0
 42
0.0
 43
0.0
 44
0.0
 45
0.0
 46
0.0
 47
0.0
 48
0.0
 49
0.0
140
0.0
141
0.0
142
1.0
143
1.0
 70
   688
 72
     1
 73
     0
 74
     5
  7

 75
    16
147
1.0
148
0.0
149
0.0
100
AcDbLayout
  1
Layout1
 70
     1
 71
     1
 10
0.0
 20
0.0
 11
420.0
 21
297.0
 12
0.0
 22
0.0
 32
0.0
 14
1.0000000000E+20
 24
1.0000000000E+20
 34
1.0000000000E+20
 15
-1.0000000000E+20
 25
-1.0000000000E+20
 35
-1.0000000000E+20
146
0.0
 13
0.0
 23
0.0
 33
0.0
 16
1.0
 26
0.0
 36
0.0
 17
0.0
 27
1.0
 37
0.0
 76
     0
330
1B
  0
LAYOUT
  5
26
102
{ACAD_REACTORS
330
1A
102
}
330
1A
100
AcDbPlotSettings
  1

  2
none_device
  4

  6

 40
0.0
 41
0.0
 42
0.0
 43
0.0
 44
0.0
 45
0.0
 46
0.0
 47
0.0
 48
0.0
 49
0.0
140
0.0
141
0.0
142
1.0
143
1.0
 70
   688
 72
     1
 73
     0
 74
     5
  7

 75
    16
147
1.0
148
0.0
149
0.0
100
AcDbLayout
  1
Layout2
 70
     1
 71
     2
 10
0.0
 20
0.0
 11
0.0
 21
0.0
 12
0.0
 22
0.0
 32
0.0
 14
0.0
 24
0.0
 34
0.0
 15
0.0
 25
0.0
 35
0.0
146
0.0
 13
0.0
 23
0.0
 33
0.0
 16
1.0
 26
0.0
 36
0.0
 17
0.0
 27
1.0
 37
0.0
 76
     0
330
23
  0
LAYOUT
  5
22
102
{ACAD_REACTORS
330
1A
102
}
330
1A
100
AcDbPlotSettings
  1

  2
none_device
  4
Letter_(8.50_x_11.00_Inches)
  6

 40
6.35
 41
6.35
 42
6.35000508
 43
6.35000508
 44
215.9
 45
279.4
 46
0.0
 47
0.0
 48
0.0
 49
0.0
140
0.0
141
0.0
142
1.0
143
1.0
 70
  1712
 72
     1
 73
     0
 74
     0
  7

 75
     0
147
1.0
148
0.0
149
0.0
100
AcDbLayout
  1
Model
 70
     1
 71
     0
 10
0.0
 20
0.0
 11
279.4
 21
215.9
 12
0.0
 22
0.0
 32
0.0
 14
0.0
 24
0.0
 34
0.0
 15
279.4
 25
215.9
 35
0.0
146
0.0
 13
0.0
 23
0.0
 33
0.0
 16
1.0
 26
0.0
 36
0.0
 17
0.0
 27
1.0
 37
0.0
 76
     0
330
1F
331
29
  0
MLINESTYLE
  5
18
102
{ACAD_REACTORS
330
17
102
}
330
17
100
AcDbMlineStyle
  2
Standard
 70
     0
  3

 62
   256
 51
90.0
 52
90.0
 71
     2
 49
0.5
 62
   256
  6
BYLAYER
 49
-0.5
 62
   256
  6
BYLAYER
  0
ACDBPLACEHOLDER
  5
F
102
{ACAD_REACTORS
330
E
102
}
330
E
  0
SCALE
  5
48
102
{ACAD_REACTORS
330
47
102
}
330
47
100
AcDbScale
 70
     0
300
1:1
140
1.0
141
1.0
290
     1
  0
SCALE
  5
49
102
{ACAD_REACTORS
330
47
102
}
330
47
100
AcDbScale
 70
     0
300
1:2
140
1.0
141
2.0
290
     0
  0
SCALE
  5
4A
102
{ACAD_REACTORS
330
47
102
}
330
47
100
AcDbScale
 70
     0
300
1:4
140
1.0
141
4.0
290
     0
  0
SCALE
  5
4B
102
{ACAD_REACTORS
330
47
102
}
330
47
100
AcDbScale
 70
     0
300
1:5
140
1.0
141
5.0
290
     0
  0
SCALE
  5
4C
102
{ACAD_REACTORS
330
47
102
}
330
47
100
AcDbScale
 70
     0
300
1:8
140
1.0
141
8.0
290
     0
  0
SCALE
  5
4D
102
{ACAD_REACTORS
330
47
102
}
330
47
100
AcDbScale
 70
     0
300
1:10
140
1.0
141
10.0
290
     0
  0
SCALE
  5
4E
102
{ACAD_REACTORS
330
47
102
}
330
47
100
AcDbScale
 70
     0
300
1:16
140
1.0
141
16.0
290
     0
  0
SCALE
  5
4F
102
{ACAD_REACTORS
330
47
102
}
330
47
100
AcDbScale
 70
     0
300
1:20
140
1.0
141
20.0
290
     0
  0
SCALE
  5
50
102
{ACAD_REACTORS
330
47
102
}
330
47
100
AcDbScale
 70
     0
300
1:30
140
1.0
141
30.0
290
     0
  0
SCALE
  5
51
102
{ACAD_REACTORS
330
47
102
}
330
47
100
AcDbScale
 70
     0
300
1:40
140
1.0
141
40.0
290
     0
  0
SCALE
  5
52
102
{ACAD_REACTORS
330
47
102
}
330
47
100
AcDbScale
 70
     0
300
1:50
140
1.0
141
50.0
290
     0
  0
SCALE
  5
53
102
{ACAD_REACTORS
330
47
102
}
330
47
100
AcDbScale
 70
     0
300
1:100
140
1.0
141
100.0
290
     0
  0
SCALE
  5
54
102
{ACAD_REACTORS
330
47
102
}
330
47
100
AcDbScale
 70
     0
300
2:1
140
2.0
141
1.0
290
     0
  0
SCALE
  5
55
102
{ACAD_REACTORS
330
47
102
}
330
47
100
AcDbScale
 70
     0
300
4:1
140
4.0
141
1.0
290
     0
  0
SCALE
  5
56
102
{ACAD_REACTORS
330
47
102
}
330
47
100
AcDbScale
 70
     0
300
8:1
140
8.0
141
1.0
290
     0
  0
SCALE
  5
57
102
{ACAD_REACTORS
330
47
102
}
330
47
100
AcDbScale
 70
     0
300
10:1
140
10.0
141
1.0
290
     0
  0
SCALE
  5
58
102
{ACAD_REACTORS
330
47
102
}
330
47
100
AcDbScale
 70
     0
300
100:1
140
100.0
141
1.0
290
     0
  0
ENDSEC
  0
EOF
